<?xml version="1.0" encoding="utf-8"?>
<!-- Generator: Adobe Illustrator 27.5.0, SVG Export Plug-In . SVG Version: 6.00 Build 0)  -->
<svg version="1.1" xmlns="http://www.w3.org/2000/svg" xmlns:xlink="http://www.w3.org/1999/xlink" x="0px" y="0px"
	 viewBox="0 0 750 500" style="enable-background:new 0 0 750 500;" xml:space="preserve">
<g id="Background_Simple">
	<g>
		<path style="fill:#92E3A9;" d="M538.649,149.326c0,0-90.318-92.499-207.682-99.636c-117.365-7.137-185.81,68.673-218.242,113.892
			C80.293,208.802-0.593,284.137,8.923,353.128c9.516,68.991,103.09,121.329,237.108,98.332
			c134.018-22.997,172.875-31.72,233.936-14.274c61.061,17.446,140.361-8.723,141.947-107.849
			C623.5,230.213,538.649,149.326,538.649,149.326z"/>
		<path style="opacity:0.7;fill:#FFFFFF;" d="M538.649,149.326c0,0-90.318-92.499-207.682-99.636
			c-117.365-7.137-185.81,68.673-218.242,113.892C80.293,208.802-0.593,284.137,8.923,353.128
			c9.516,68.991,103.09,121.329,237.108,98.332c134.018-22.997,172.875-31.72,233.936-14.274
			c61.061,17.446,140.361-8.723,141.947-107.849C623.5,230.213,538.649,149.326,538.649,149.326z"/>
	</g>
</g>
<g id="Screen">
	<g>
		<path style="opacity:0.2;" d="M631.511,451.432H350.332c-5.799,0-10.5-4.701-10.5-10.5V57.1c0-5.799,4.701-10.5,10.5-10.5h281.179
			c5.799,0,10.5,4.701,10.5,10.5v383.832C642.011,446.731,637.31,451.432,631.511,451.432z"/>
		<path style="fill:#263238;stroke:#263238;stroke-linecap:round;stroke-linejoin:round;stroke-miterlimit:10;" d="M622.695,444.82
			H341.516c-5.799,0-10.5-4.701-10.5-10.5V50.488c0-5.799,4.701-10.5,10.5-10.5h281.179c5.799,0,10.5,4.701,10.5,10.5V434.32
			C633.195,440.119,628.494,444.82,622.695,444.82z"/>
		
			<rect x="363.811" y="39.988" style="fill:#FFFFFF;stroke:#263238;stroke-linecap:round;stroke-linejoin:round;stroke-miterlimit:10;" width="225.227" height="404.832"/>
		
			<rect x="383.909" y="105.426" style="fill:none;stroke:#263238;stroke-linecap:round;stroke-linejoin:round;stroke-miterlimit:10;" width="192.6" height="19.586"/>
		
			<rect x="383.909" y="129.909" style="fill:none;stroke:#263238;stroke-linecap:round;stroke-linejoin:round;stroke-miterlimit:10;" width="97.932" height="19.586"/>
		<g>
			<g>
				
					<rect x="382.277" y="176.427" style="fill:#B5B5B5;stroke:#263238;stroke-linecap:round;stroke-linejoin:round;stroke-miterlimit:10;" width="117.393" height="89.771"/>
				
					<rect x="410.777" y="176.427" style="fill:#D6D6D6;stroke:#263238;stroke-linecap:round;stroke-linejoin:round;stroke-miterlimit:10;" width="88.892" height="89.771"/>
			</g>
			<g>
				<polygon style="fill:#263238;stroke:#263238;stroke-linecap:round;stroke-linejoin:round;stroke-miterlimit:10;" points="
					545.006,169.782 542.001,180.294 549.484,188.264 541.273,195.483 543.258,206.234 532.448,207.867 528.306,217.985 
					518.329,213.515 509.374,219.787 503.397,210.632 492.473,211.067 492.395,200.135 482.97,194.594 488.815,185.355 
					483.881,175.599 493.793,170.986 494.917,160.111 505.749,161.59 512.574,153.049 520.888,160.149 531.247,156.654 
					534.402,167.122 				"/>
				
					<line style="fill:none;stroke:#92E3A9;stroke-width:2;stroke-linecap:round;stroke-linejoin:round;stroke-miterlimit:10;" x1="505.571" y1="183.229" x2="526.882" y2="183.229"/>
				
					<line style="fill:none;stroke:#92E3A9;stroke-width:2;stroke-linecap:round;stroke-linejoin:round;stroke-miterlimit:10;" x1="502.783" y1="192.255" x2="529.67" y2="192.255"/>
			</g>
			
				<line style="fill:none;stroke:#263238;stroke-linecap:round;stroke-linejoin:round;stroke-miterlimit:10;" x1="513.669" y1="237.634" x2="557.738" y2="237.634"/>
			
				<line style="fill:none;stroke:#263238;stroke-linecap:round;stroke-linejoin:round;stroke-miterlimit:10;" x1="513.669" y1="248.243" x2="557.738" y2="248.243"/>
			
				<line style="fill:none;stroke:#263238;stroke-linecap:round;stroke-linejoin:round;stroke-miterlimit:10;" x1="513.669" y1="258.853" x2="557.738" y2="258.853"/>
		</g>
		<path style="fill:#B2B2B2;stroke:#263238;stroke-linecap:round;stroke-linejoin:round;stroke-miterlimit:10;" d="M623.159,40.84
			v404.685c5.645-0.625,10.037-5.406,10.037-11.218V52.058C633.195,46.247,628.804,41.465,623.159,40.84z"/>
		
			<rect x="623.159" y="224.431" style="fill:#808080;stroke:#263238;stroke-linecap:round;stroke-linejoin:round;stroke-miterlimit:10;" width="10.037" height="56.636"/>
		<g>
			<g>
				<path style="fill:#92E3A9;stroke:#263238;stroke-linecap:round;stroke-linejoin:round;stroke-miterlimit:10;" d="
					M633.195,87.433V52.058c0-6.236-5.055-11.291-11.291-11.291H342.307c-6.236,0-11.291,5.055-11.291,11.291v35.375H633.195z"/>
			</g>
			
				<rect x="347.591" y="59.054" style="fill:#FFFFFF;stroke:#263238;stroke-linecap:round;stroke-linejoin:round;stroke-miterlimit:10;" width="128.564" height="8.548"/>
		</g>
		<g>
			
				<rect x="331.016" y="72.204" style="fill:#263238;stroke:#263238;stroke-linecap:round;stroke-linejoin:round;stroke-miterlimit:10;" width="302.179" height="15.23"/>
			<g>
				
					<line style="fill:none;stroke:#FFFFFF;stroke-linecap:round;stroke-linejoin:round;stroke-miterlimit:10;" x1="338.017" y1="76.15" x2="345.882" y2="76.15"/>
				
					<line style="fill:none;stroke:#FFFFFF;stroke-linecap:round;stroke-linejoin:round;stroke-miterlimit:10;" x1="338.017" y1="79.569" x2="345.882" y2="79.569"/>
				
					<line style="fill:none;stroke:#FFFFFF;stroke-linecap:round;stroke-linejoin:round;stroke-miterlimit:10;" x1="338.017" y1="82.989" x2="345.882" y2="82.989"/>
			</g>
			
				<line style="fill:none;stroke:#FFFFFF;stroke-linecap:round;stroke-linejoin:round;stroke-miterlimit:10;" x1="378.674" y1="76.01" x2="378.674" y2="84.892"/>
			
				<line style="fill:none;stroke:#FFFFFF;stroke-linecap:round;stroke-linejoin:round;stroke-miterlimit:10;" x1="424.985" y1="76.01" x2="424.985" y2="84.892"/>
			
				<line style="fill:none;stroke:#FFFFFF;stroke-linecap:round;stroke-linejoin:round;stroke-miterlimit:10;" x1="471.296" y1="76.01" x2="471.296" y2="84.892"/>
			
				<line style="fill:none;stroke:#FFFFFF;stroke-linecap:round;stroke-linejoin:round;stroke-miterlimit:10;" x1="517.607" y1="76.01" x2="517.607" y2="84.892"/>
			
				<line style="fill:none;stroke:#FFFFFF;stroke-linecap:round;stroke-linejoin:round;stroke-miterlimit:10;" x1="563.919" y1="76.01" x2="563.919" y2="84.892"/>
		</g>
		<g>
			<path style="fill:#263238;stroke:#263238;stroke-linecap:round;stroke-linejoin:round;stroke-miterlimit:10;" d="M633.195,53.927
				v-1.869c0-6.236-5.055-11.291-11.291-11.291H342.307c-6.236,0-11.291,5.055-11.291,11.291v1.869H633.195z"/>
			<path style="fill:#FFFFFF;stroke:#263238;stroke-linecap:round;stroke-linejoin:round;stroke-miterlimit:10;" d="M593.35,47.384
				c0-1.863-1.51-3.373-3.373-3.373c-1.863,0-3.373,1.51-3.373,3.373c0,1.863,1.51,3.373,3.373,3.373
				C591.84,50.756,593.35,49.246,593.35,47.384z"/>
			<path style="fill:#FFFFFF;stroke:#263238;stroke-linecap:round;stroke-linejoin:round;stroke-miterlimit:10;" d="M603.986,47.384
				c0-1.863-1.51-3.373-3.373-3.373c-1.863,0-3.373,1.51-3.373,3.373c0,1.863,1.51,3.373,3.373,3.373
				C602.476,50.756,603.986,49.246,603.986,47.384z"/>
			<path style="fill:#FFFFFF;stroke:#263238;stroke-linecap:round;stroke-linejoin:round;stroke-miterlimit:10;" d="M614.623,47.384
				c0-1.863-1.51-3.373-3.372-3.373c-1.863,0-3.373,1.51-3.373,3.373c0,1.863,1.51,3.373,3.373,3.373
				C613.113,50.756,614.623,49.246,614.623,47.384z"/>
		</g>
		<g>
			<path style="fill:#92E3A9;stroke:#263238;stroke-linecap:round;stroke-linejoin:round;stroke-miterlimit:10;" d="
				M331.016,423.733v10.574c0,6.236,5.055,11.291,11.291,11.291h279.597c6.236,0,11.291-5.055,11.291-11.291v-10.574H331.016z"/>
		</g>
		<g>
			<g>
				<line style="fill:none;stroke:#263238;stroke-miterlimit:10;" x1="456.664" y1="296.262" x2="467.805" y2="296.262"/>
				<line style="fill:none;stroke:#263238;stroke-miterlimit:10;" x1="443.405" y1="296.262" x2="455.377" y2="296.262"/>
				<line style="fill:none;stroke:#263238;stroke-miterlimit:10;" x1="438.641" y1="296.262" x2="442.117" y2="296.262"/>
				<line style="fill:none;stroke:#263238;stroke-miterlimit:10;" x1="422.292" y1="296.262" x2="437.74" y2="296.262"/>
				<line style="fill:none;stroke:#263238;stroke-miterlimit:10;" x1="402.209" y1="296.262" x2="420.618" y2="296.262"/>
				<line style="fill:none;stroke:#263238;stroke-miterlimit:10;" x1="387.534" y1="296.262" x2="400.278" y2="296.262"/>
				<line style="fill:none;stroke:#263238;stroke-miterlimit:10;" x1="380.56" y1="296.262" x2="385.86" y2="296.262"/>
			</g>
			<g>
				<line style="fill:none;stroke:#263238;stroke-miterlimit:10;" x1="391.701" y1="305.087" x2="380.56" y2="305.087"/>
				<line style="fill:none;stroke:#263238;stroke-miterlimit:10;" x1="404.961" y1="305.087" x2="392.988" y2="305.087"/>
				<line style="fill:none;stroke:#263238;stroke-miterlimit:10;" x1="409.724" y1="305.087" x2="406.248" y2="305.087"/>
				<line style="fill:none;stroke:#263238;stroke-miterlimit:10;" x1="426.073" y1="305.087" x2="410.625" y2="305.087"/>
				<line style="fill:none;stroke:#263238;stroke-miterlimit:10;" x1="446.156" y1="305.087" x2="427.747" y2="305.087"/>
				<line style="fill:none;stroke:#263238;stroke-miterlimit:10;" x1="460.832" y1="305.087" x2="448.087" y2="305.087"/>
				<line style="fill:none;stroke:#263238;stroke-miterlimit:10;" x1="467.805" y1="305.087" x2="462.505" y2="305.087"/>
			</g>
			<g>
				<line style="fill:none;stroke:#263238;stroke-miterlimit:10;" x1="456.664" y1="313.528" x2="467.805" y2="313.528"/>
				<line style="fill:none;stroke:#263238;stroke-miterlimit:10;" x1="443.405" y1="313.528" x2="455.377" y2="313.528"/>
				<line style="fill:none;stroke:#263238;stroke-miterlimit:10;" x1="438.641" y1="313.528" x2="442.117" y2="313.528"/>
				<line style="fill:none;stroke:#263238;stroke-miterlimit:10;" x1="422.292" y1="313.528" x2="437.74" y2="313.528"/>
				<line style="fill:none;stroke:#263238;stroke-miterlimit:10;" x1="402.209" y1="313.528" x2="420.618" y2="313.528"/>
				<line style="fill:none;stroke:#263238;stroke-miterlimit:10;" x1="387.534" y1="313.528" x2="400.278" y2="313.528"/>
				<line style="fill:none;stroke:#263238;stroke-miterlimit:10;" x1="380.56" y1="313.528" x2="385.86" y2="313.528"/>
			</g>
			<g>
				<line style="fill:none;stroke:#263238;stroke-miterlimit:10;" x1="391.701" y1="322.353" x2="380.56" y2="322.353"/>
				<line style="fill:none;stroke:#263238;stroke-miterlimit:10;" x1="404.961" y1="322.353" x2="392.988" y2="322.353"/>
				<line style="fill:none;stroke:#263238;stroke-miterlimit:10;" x1="409.724" y1="322.353" x2="406.248" y2="322.353"/>
				<line style="fill:none;stroke:#263238;stroke-miterlimit:10;" x1="426.073" y1="322.353" x2="410.625" y2="322.353"/>
				<line style="fill:none;stroke:#263238;stroke-miterlimit:10;" x1="446.156" y1="322.353" x2="427.747" y2="322.353"/>
				<line style="fill:none;stroke:#263238;stroke-miterlimit:10;" x1="460.832" y1="322.353" x2="448.087" y2="322.353"/>
				<line style="fill:none;stroke:#263238;stroke-miterlimit:10;" x1="467.805" y1="322.353" x2="462.505" y2="322.353"/>
			</g>
			<g>
				<line style="fill:none;stroke:#263238;stroke-miterlimit:10;" x1="456.664" y1="330.794" x2="467.805" y2="330.794"/>
				<line style="fill:none;stroke:#263238;stroke-miterlimit:10;" x1="443.405" y1="330.794" x2="455.377" y2="330.794"/>
				<line style="fill:none;stroke:#263238;stroke-miterlimit:10;" x1="438.641" y1="330.794" x2="442.117" y2="330.794"/>
				<line style="fill:none;stroke:#263238;stroke-miterlimit:10;" x1="422.292" y1="330.794" x2="437.74" y2="330.794"/>
				<line style="fill:none;stroke:#263238;stroke-miterlimit:10;" x1="402.209" y1="330.794" x2="420.618" y2="330.794"/>
				<line style="fill:none;stroke:#263238;stroke-miterlimit:10;" x1="387.534" y1="330.794" x2="400.278" y2="330.794"/>
				<line style="fill:none;stroke:#263238;stroke-miterlimit:10;" x1="380.56" y1="330.794" x2="385.86" y2="330.794"/>
			</g>
			<g>
				<line style="fill:none;stroke:#263238;stroke-miterlimit:10;" x1="391.701" y1="339.619" x2="380.56" y2="339.619"/>
				<line style="fill:none;stroke:#263238;stroke-miterlimit:10;" x1="404.961" y1="339.619" x2="392.988" y2="339.619"/>
				<line style="fill:none;stroke:#263238;stroke-miterlimit:10;" x1="409.724" y1="339.619" x2="406.248" y2="339.619"/>
				<line style="fill:none;stroke:#263238;stroke-miterlimit:10;" x1="426.073" y1="339.619" x2="410.625" y2="339.619"/>
				<line style="fill:none;stroke:#263238;stroke-miterlimit:10;" x1="446.156" y1="339.619" x2="427.747" y2="339.619"/>
				<line style="fill:none;stroke:#263238;stroke-miterlimit:10;" x1="460.832" y1="339.619" x2="448.087" y2="339.619"/>
				<line style="fill:none;stroke:#263238;stroke-miterlimit:10;" x1="467.805" y1="339.619" x2="462.505" y2="339.619"/>
			</g>
			<g>
				<line style="fill:none;stroke:#263238;stroke-miterlimit:10;" x1="456.664" y1="348.061" x2="467.805" y2="348.061"/>
				<line style="fill:none;stroke:#263238;stroke-miterlimit:10;" x1="443.405" y1="348.061" x2="455.377" y2="348.061"/>
				<line style="fill:none;stroke:#263238;stroke-miterlimit:10;" x1="438.641" y1="348.061" x2="442.117" y2="348.061"/>
				<line style="fill:none;stroke:#263238;stroke-miterlimit:10;" x1="422.292" y1="348.061" x2="437.74" y2="348.061"/>
				<line style="fill:none;stroke:#263238;stroke-miterlimit:10;" x1="402.209" y1="348.061" x2="420.618" y2="348.061"/>
				<line style="fill:none;stroke:#263238;stroke-miterlimit:10;" x1="387.534" y1="348.061" x2="400.278" y2="348.061"/>
				<line style="fill:none;stroke:#263238;stroke-miterlimit:10;" x1="380.56" y1="348.061" x2="385.86" y2="348.061"/>
			</g>
			<g>
				<line style="fill:none;stroke:#263238;stroke-miterlimit:10;" x1="391.701" y1="356.885" x2="380.56" y2="356.885"/>
				<line style="fill:none;stroke:#263238;stroke-miterlimit:10;" x1="404.961" y1="356.885" x2="392.988" y2="356.885"/>
				<line style="fill:none;stroke:#263238;stroke-miterlimit:10;" x1="409.724" y1="356.885" x2="406.248" y2="356.885"/>
				<line style="fill:none;stroke:#263238;stroke-miterlimit:10;" x1="426.073" y1="356.885" x2="410.625" y2="356.885"/>
				<line style="fill:none;stroke:#263238;stroke-miterlimit:10;" x1="446.156" y1="356.885" x2="427.747" y2="356.885"/>
				<line style="fill:none;stroke:#263238;stroke-miterlimit:10;" x1="460.832" y1="356.885" x2="448.087" y2="356.885"/>
				<line style="fill:none;stroke:#263238;stroke-miterlimit:10;" x1="467.805" y1="356.885" x2="462.505" y2="356.885"/>
			</g>
			<g>
				<line style="fill:none;stroke:#263238;stroke-miterlimit:10;" x1="456.664" y1="365.327" x2="467.805" y2="365.327"/>
				<line style="fill:none;stroke:#263238;stroke-miterlimit:10;" x1="443.405" y1="365.327" x2="455.377" y2="365.327"/>
				<line style="fill:none;stroke:#263238;stroke-miterlimit:10;" x1="438.641" y1="365.327" x2="442.117" y2="365.327"/>
				<line style="fill:none;stroke:#263238;stroke-miterlimit:10;" x1="422.292" y1="365.327" x2="437.74" y2="365.327"/>
				<line style="fill:none;stroke:#263238;stroke-miterlimit:10;" x1="402.209" y1="365.327" x2="420.618" y2="365.327"/>
				<line style="fill:none;stroke:#263238;stroke-miterlimit:10;" x1="387.534" y1="365.327" x2="400.278" y2="365.327"/>
				<line style="fill:none;stroke:#263238;stroke-miterlimit:10;" x1="380.56" y1="365.327" x2="385.86" y2="365.327"/>
			</g>
			<g>
				<line style="fill:none;stroke:#263238;stroke-miterlimit:10;" x1="391.701" y1="374.152" x2="380.56" y2="374.152"/>
				<line style="fill:none;stroke:#263238;stroke-miterlimit:10;" x1="404.961" y1="374.152" x2="392.988" y2="374.152"/>
				<line style="fill:none;stroke:#263238;stroke-miterlimit:10;" x1="409.724" y1="374.152" x2="406.248" y2="374.152"/>
				<line style="fill:none;stroke:#263238;stroke-miterlimit:10;" x1="426.073" y1="374.152" x2="410.625" y2="374.152"/>
				<line style="fill:none;stroke:#263238;stroke-miterlimit:10;" x1="446.156" y1="374.152" x2="427.747" y2="374.152"/>
				<line style="fill:none;stroke:#263238;stroke-miterlimit:10;" x1="460.832" y1="374.152" x2="448.087" y2="374.152"/>
				<line style="fill:none;stroke:#263238;stroke-miterlimit:10;" x1="467.805" y1="374.152" x2="462.505" y2="374.152"/>
			</g>
			<g>
				<line style="fill:none;stroke:#263238;stroke-miterlimit:10;" x1="456.664" y1="382.593" x2="467.805" y2="382.593"/>
				<line style="fill:none;stroke:#263238;stroke-miterlimit:10;" x1="443.405" y1="382.593" x2="455.377" y2="382.593"/>
				<line style="fill:none;stroke:#263238;stroke-miterlimit:10;" x1="438.641" y1="382.593" x2="442.117" y2="382.593"/>
				<line style="fill:none;stroke:#263238;stroke-miterlimit:10;" x1="422.292" y1="382.593" x2="437.74" y2="382.593"/>
				<line style="fill:none;stroke:#263238;stroke-miterlimit:10;" x1="402.209" y1="382.593" x2="420.618" y2="382.593"/>
				<line style="fill:none;stroke:#263238;stroke-miterlimit:10;" x1="387.534" y1="382.593" x2="400.278" y2="382.593"/>
				<line style="fill:none;stroke:#263238;stroke-miterlimit:10;" x1="380.56" y1="382.593" x2="385.86" y2="382.593"/>
			</g>
			<g>
				<line style="fill:none;stroke:#263238;stroke-miterlimit:10;" x1="391.701" y1="391.418" x2="380.56" y2="391.418"/>
				<line style="fill:none;stroke:#263238;stroke-miterlimit:10;" x1="404.961" y1="391.418" x2="392.988" y2="391.418"/>
				<line style="fill:none;stroke:#263238;stroke-miterlimit:10;" x1="409.724" y1="391.418" x2="406.248" y2="391.418"/>
				<line style="fill:none;stroke:#263238;stroke-miterlimit:10;" x1="426.073" y1="391.418" x2="410.625" y2="391.418"/>
				<line style="fill:none;stroke:#263238;stroke-miterlimit:10;" x1="446.156" y1="391.418" x2="427.747" y2="391.418"/>
				<line style="fill:none;stroke:#263238;stroke-miterlimit:10;" x1="460.832" y1="391.418" x2="448.087" y2="391.418"/>
				<line style="fill:none;stroke:#263238;stroke-miterlimit:10;" x1="467.805" y1="391.418" x2="462.505" y2="391.418"/>
			</g>
			<g>
				<line style="fill:none;stroke:#263238;stroke-miterlimit:10;" x1="456.664" y1="399.859" x2="467.805" y2="399.859"/>
				<line style="fill:none;stroke:#263238;stroke-miterlimit:10;" x1="443.405" y1="399.859" x2="455.377" y2="399.859"/>
				<line style="fill:none;stroke:#263238;stroke-miterlimit:10;" x1="438.641" y1="399.859" x2="442.117" y2="399.859"/>
				<line style="fill:none;stroke:#263238;stroke-miterlimit:10;" x1="422.292" y1="399.859" x2="437.74" y2="399.859"/>
				<line style="fill:none;stroke:#263238;stroke-miterlimit:10;" x1="402.209" y1="399.859" x2="420.618" y2="399.859"/>
				<line style="fill:none;stroke:#263238;stroke-miterlimit:10;" x1="387.534" y1="399.859" x2="400.278" y2="399.859"/>
				<line style="fill:none;stroke:#263238;stroke-miterlimit:10;" x1="380.56" y1="399.859" x2="385.86" y2="399.859"/>
			</g>
			<g>
				<line style="fill:none;stroke:#263238;stroke-miterlimit:10;" x1="391.701" y1="408.684" x2="380.56" y2="408.684"/>
				<line style="fill:none;stroke:#263238;stroke-miterlimit:10;" x1="404.961" y1="408.684" x2="392.988" y2="408.684"/>
				<line style="fill:none;stroke:#263238;stroke-miterlimit:10;" x1="409.724" y1="408.684" x2="406.248" y2="408.684"/>
				<line style="fill:none;stroke:#263238;stroke-miterlimit:10;" x1="426.073" y1="408.684" x2="410.625" y2="408.684"/>
				<line style="fill:none;stroke:#263238;stroke-miterlimit:10;" x1="446.156" y1="408.684" x2="427.747" y2="408.684"/>
				<line style="fill:none;stroke:#263238;stroke-miterlimit:10;" x1="460.832" y1="408.684" x2="448.087" y2="408.684"/>
				<line style="fill:none;stroke:#263238;stroke-miterlimit:10;" x1="467.805" y1="408.684" x2="462.505" y2="408.684"/>
			</g>
		</g>
		<g>
			<g>
				<line style="fill:none;stroke:#263238;stroke-miterlimit:10;" x1="495.967" y1="296.262" x2="484.826" y2="296.262"/>
				<line style="fill:none;stroke:#263238;stroke-miterlimit:10;" x1="509.227" y1="296.262" x2="497.254" y2="296.262"/>
				<line style="fill:none;stroke:#263238;stroke-miterlimit:10;" x1="513.99" y1="296.262" x2="510.514" y2="296.262"/>
				<line style="fill:none;stroke:#263238;stroke-miterlimit:10;" x1="530.339" y1="296.262" x2="514.891" y2="296.262"/>
				<line style="fill:none;stroke:#263238;stroke-miterlimit:10;" x1="550.422" y1="296.262" x2="532.013" y2="296.262"/>
				<line style="fill:none;stroke:#263238;stroke-miterlimit:10;" x1="565.098" y1="296.262" x2="552.353" y2="296.262"/>
				<line style="fill:none;stroke:#263238;stroke-miterlimit:10;" x1="572.071" y1="296.262" x2="566.771" y2="296.262"/>
			</g>
			<g>
				<line style="fill:none;stroke:#263238;stroke-miterlimit:10;" x1="560.93" y1="305.087" x2="572.071" y2="305.087"/>
				<line style="fill:none;stroke:#263238;stroke-miterlimit:10;" x1="547.671" y1="305.087" x2="559.643" y2="305.087"/>
				<line style="fill:none;stroke:#263238;stroke-miterlimit:10;" x1="542.907" y1="305.087" x2="546.383" y2="305.087"/>
				<line style="fill:none;stroke:#263238;stroke-miterlimit:10;" x1="526.558" y1="305.087" x2="542.006" y2="305.087"/>
				<line style="fill:none;stroke:#263238;stroke-miterlimit:10;" x1="506.475" y1="305.087" x2="524.884" y2="305.087"/>
				<line style="fill:none;stroke:#263238;stroke-miterlimit:10;" x1="491.8" y1="305.087" x2="504.544" y2="305.087"/>
				<line style="fill:none;stroke:#263238;stroke-miterlimit:10;" x1="484.826" y1="305.087" x2="490.126" y2="305.087"/>
			</g>
			<g>
				<line style="fill:none;stroke:#263238;stroke-miterlimit:10;" x1="495.967" y1="313.528" x2="484.826" y2="313.528"/>
				<line style="fill:none;stroke:#263238;stroke-miterlimit:10;" x1="509.227" y1="313.528" x2="497.254" y2="313.528"/>
				<line style="fill:none;stroke:#263238;stroke-miterlimit:10;" x1="513.99" y1="313.528" x2="510.514" y2="313.528"/>
				<line style="fill:none;stroke:#263238;stroke-miterlimit:10;" x1="530.339" y1="313.528" x2="514.891" y2="313.528"/>
				<line style="fill:none;stroke:#263238;stroke-miterlimit:10;" x1="550.422" y1="313.528" x2="532.013" y2="313.528"/>
				<line style="fill:none;stroke:#263238;stroke-miterlimit:10;" x1="565.098" y1="313.528" x2="552.353" y2="313.528"/>
				<line style="fill:none;stroke:#263238;stroke-miterlimit:10;" x1="572.071" y1="313.528" x2="566.771" y2="313.528"/>
			</g>
			<g>
				<line style="fill:none;stroke:#263238;stroke-miterlimit:10;" x1="560.93" y1="322.353" x2="572.071" y2="322.353"/>
				<line style="fill:none;stroke:#263238;stroke-miterlimit:10;" x1="547.671" y1="322.353" x2="559.643" y2="322.353"/>
				<line style="fill:none;stroke:#263238;stroke-miterlimit:10;" x1="542.907" y1="322.353" x2="546.383" y2="322.353"/>
				<line style="fill:none;stroke:#263238;stroke-miterlimit:10;" x1="526.558" y1="322.353" x2="542.006" y2="322.353"/>
				<line style="fill:none;stroke:#263238;stroke-miterlimit:10;" x1="506.475" y1="322.353" x2="524.884" y2="322.353"/>
				<line style="fill:none;stroke:#263238;stroke-miterlimit:10;" x1="491.8" y1="322.353" x2="504.544" y2="322.353"/>
				<line style="fill:none;stroke:#263238;stroke-miterlimit:10;" x1="484.826" y1="322.353" x2="490.126" y2="322.353"/>
			</g>
			<g>
				<line style="fill:none;stroke:#263238;stroke-miterlimit:10;" x1="495.967" y1="330.794" x2="484.826" y2="330.794"/>
				<line style="fill:none;stroke:#263238;stroke-miterlimit:10;" x1="509.227" y1="330.794" x2="497.254" y2="330.794"/>
				<line style="fill:none;stroke:#263238;stroke-miterlimit:10;" x1="513.99" y1="330.794" x2="510.514" y2="330.794"/>
				<line style="fill:none;stroke:#263238;stroke-miterlimit:10;" x1="530.339" y1="330.794" x2="514.891" y2="330.794"/>
				<line style="fill:none;stroke:#263238;stroke-miterlimit:10;" x1="550.422" y1="330.794" x2="532.013" y2="330.794"/>
				<line style="fill:none;stroke:#263238;stroke-miterlimit:10;" x1="565.098" y1="330.794" x2="552.353" y2="330.794"/>
				<line style="fill:none;stroke:#263238;stroke-miterlimit:10;" x1="572.071" y1="330.794" x2="566.771" y2="330.794"/>
			</g>
			<g>
				<line style="fill:none;stroke:#263238;stroke-miterlimit:10;" x1="560.93" y1="339.619" x2="572.071" y2="339.619"/>
				<line style="fill:none;stroke:#263238;stroke-miterlimit:10;" x1="547.671" y1="339.619" x2="559.643" y2="339.619"/>
				<line style="fill:none;stroke:#263238;stroke-miterlimit:10;" x1="542.907" y1="339.619" x2="546.383" y2="339.619"/>
				<line style="fill:none;stroke:#263238;stroke-miterlimit:10;" x1="526.558" y1="339.619" x2="542.006" y2="339.619"/>
				<line style="fill:none;stroke:#263238;stroke-miterlimit:10;" x1="506.475" y1="339.619" x2="524.884" y2="339.619"/>
				<line style="fill:none;stroke:#263238;stroke-miterlimit:10;" x1="491.8" y1="339.619" x2="504.544" y2="339.619"/>
				<line style="fill:none;stroke:#263238;stroke-miterlimit:10;" x1="484.826" y1="339.619" x2="490.126" y2="339.619"/>
			</g>
			<g>
				<line style="fill:none;stroke:#263238;stroke-miterlimit:10;" x1="495.967" y1="348.061" x2="484.826" y2="348.061"/>
				<line style="fill:none;stroke:#263238;stroke-miterlimit:10;" x1="509.227" y1="348.061" x2="497.254" y2="348.061"/>
				<line style="fill:none;stroke:#263238;stroke-miterlimit:10;" x1="513.99" y1="348.061" x2="510.514" y2="348.061"/>
				<line style="fill:none;stroke:#263238;stroke-miterlimit:10;" x1="530.339" y1="348.061" x2="514.891" y2="348.061"/>
				<line style="fill:none;stroke:#263238;stroke-miterlimit:10;" x1="550.422" y1="348.061" x2="532.013" y2="348.061"/>
				<line style="fill:none;stroke:#263238;stroke-miterlimit:10;" x1="565.098" y1="348.061" x2="552.353" y2="348.061"/>
				<line style="fill:none;stroke:#263238;stroke-miterlimit:10;" x1="572.071" y1="348.061" x2="566.771" y2="348.061"/>
			</g>
			<g>
				<line style="fill:none;stroke:#263238;stroke-miterlimit:10;" x1="560.93" y1="356.885" x2="572.071" y2="356.885"/>
				<line style="fill:none;stroke:#263238;stroke-miterlimit:10;" x1="547.671" y1="356.885" x2="559.643" y2="356.885"/>
				<line style="fill:none;stroke:#263238;stroke-miterlimit:10;" x1="542.907" y1="356.885" x2="546.383" y2="356.885"/>
				<line style="fill:none;stroke:#263238;stroke-miterlimit:10;" x1="526.558" y1="356.885" x2="542.006" y2="356.885"/>
				<line style="fill:none;stroke:#263238;stroke-miterlimit:10;" x1="506.475" y1="356.885" x2="524.884" y2="356.885"/>
				<line style="fill:none;stroke:#263238;stroke-miterlimit:10;" x1="491.8" y1="356.885" x2="504.544" y2="356.885"/>
				<line style="fill:none;stroke:#263238;stroke-miterlimit:10;" x1="484.826" y1="356.885" x2="490.126" y2="356.885"/>
			</g>
			<g>
				<line style="fill:none;stroke:#263238;stroke-miterlimit:10;" x1="495.967" y1="365.327" x2="484.826" y2="365.327"/>
				<line style="fill:none;stroke:#263238;stroke-miterlimit:10;" x1="509.227" y1="365.327" x2="497.254" y2="365.327"/>
				<line style="fill:none;stroke:#263238;stroke-miterlimit:10;" x1="513.99" y1="365.327" x2="510.514" y2="365.327"/>
				<line style="fill:none;stroke:#263238;stroke-miterlimit:10;" x1="530.339" y1="365.327" x2="514.891" y2="365.327"/>
				<line style="fill:none;stroke:#263238;stroke-miterlimit:10;" x1="550.422" y1="365.327" x2="532.013" y2="365.327"/>
				<line style="fill:none;stroke:#263238;stroke-miterlimit:10;" x1="565.098" y1="365.327" x2="552.353" y2="365.327"/>
				<line style="fill:none;stroke:#263238;stroke-miterlimit:10;" x1="572.071" y1="365.327" x2="566.771" y2="365.327"/>
			</g>
			<g>
				<line style="fill:none;stroke:#263238;stroke-miterlimit:10;" x1="560.93" y1="374.152" x2="572.071" y2="374.152"/>
				<line style="fill:none;stroke:#263238;stroke-miterlimit:10;" x1="547.671" y1="374.152" x2="559.643" y2="374.152"/>
				<line style="fill:none;stroke:#263238;stroke-miterlimit:10;" x1="542.907" y1="374.152" x2="546.383" y2="374.152"/>
				<line style="fill:none;stroke:#263238;stroke-miterlimit:10;" x1="526.558" y1="374.152" x2="542.006" y2="374.152"/>
				<line style="fill:none;stroke:#263238;stroke-miterlimit:10;" x1="506.475" y1="374.152" x2="524.884" y2="374.152"/>
				<line style="fill:none;stroke:#263238;stroke-miterlimit:10;" x1="491.8" y1="374.152" x2="504.544" y2="374.152"/>
				<line style="fill:none;stroke:#263238;stroke-miterlimit:10;" x1="484.826" y1="374.152" x2="490.126" y2="374.152"/>
			</g>
			<g>
				<line style="fill:none;stroke:#263238;stroke-miterlimit:10;" x1="495.967" y1="382.593" x2="484.826" y2="382.593"/>
				<line style="fill:none;stroke:#263238;stroke-miterlimit:10;" x1="509.227" y1="382.593" x2="497.254" y2="382.593"/>
				<line style="fill:none;stroke:#263238;stroke-miterlimit:10;" x1="513.99" y1="382.593" x2="510.514" y2="382.593"/>
				<line style="fill:none;stroke:#263238;stroke-miterlimit:10;" x1="530.339" y1="382.593" x2="514.891" y2="382.593"/>
				<line style="fill:none;stroke:#263238;stroke-miterlimit:10;" x1="550.422" y1="382.593" x2="532.013" y2="382.593"/>
				<line style="fill:none;stroke:#263238;stroke-miterlimit:10;" x1="565.098" y1="382.593" x2="552.353" y2="382.593"/>
				<line style="fill:none;stroke:#263238;stroke-miterlimit:10;" x1="572.071" y1="382.593" x2="566.771" y2="382.593"/>
			</g>
			<g>
				<line style="fill:none;stroke:#263238;stroke-miterlimit:10;" x1="560.93" y1="391.418" x2="572.071" y2="391.418"/>
				<line style="fill:none;stroke:#263238;stroke-miterlimit:10;" x1="547.671" y1="391.418" x2="559.643" y2="391.418"/>
				<line style="fill:none;stroke:#263238;stroke-miterlimit:10;" x1="542.907" y1="391.418" x2="546.383" y2="391.418"/>
				<line style="fill:none;stroke:#263238;stroke-miterlimit:10;" x1="526.558" y1="391.418" x2="542.006" y2="391.418"/>
				<line style="fill:none;stroke:#263238;stroke-miterlimit:10;" x1="506.475" y1="391.418" x2="524.884" y2="391.418"/>
				<line style="fill:none;stroke:#263238;stroke-miterlimit:10;" x1="491.8" y1="391.418" x2="504.544" y2="391.418"/>
				<line style="fill:none;stroke:#263238;stroke-miterlimit:10;" x1="484.826" y1="391.418" x2="490.126" y2="391.418"/>
			</g>
			<g>
				<line style="fill:none;stroke:#263238;stroke-miterlimit:10;" x1="495.967" y1="399.859" x2="484.826" y2="399.859"/>
				<line style="fill:none;stroke:#263238;stroke-miterlimit:10;" x1="509.227" y1="399.859" x2="497.254" y2="399.859"/>
				<line style="fill:none;stroke:#263238;stroke-miterlimit:10;" x1="513.99" y1="399.859" x2="510.514" y2="399.859"/>
				<line style="fill:none;stroke:#263238;stroke-miterlimit:10;" x1="530.339" y1="399.859" x2="514.891" y2="399.859"/>
				<line style="fill:none;stroke:#263238;stroke-miterlimit:10;" x1="550.422" y1="399.859" x2="532.013" y2="399.859"/>
				<line style="fill:none;stroke:#263238;stroke-miterlimit:10;" x1="565.098" y1="399.859" x2="552.353" y2="399.859"/>
				<line style="fill:none;stroke:#263238;stroke-miterlimit:10;" x1="572.071" y1="399.859" x2="566.771" y2="399.859"/>
			</g>
			<g>
				<line style="fill:none;stroke:#263238;stroke-miterlimit:10;" x1="560.93" y1="408.684" x2="572.071" y2="408.684"/>
				<line style="fill:none;stroke:#263238;stroke-miterlimit:10;" x1="547.671" y1="408.684" x2="559.643" y2="408.684"/>
				<line style="fill:none;stroke:#263238;stroke-miterlimit:10;" x1="542.907" y1="408.684" x2="546.383" y2="408.684"/>
				<line style="fill:none;stroke:#263238;stroke-miterlimit:10;" x1="526.558" y1="408.684" x2="542.006" y2="408.684"/>
				<line style="fill:none;stroke:#263238;stroke-miterlimit:10;" x1="506.475" y1="408.684" x2="524.884" y2="408.684"/>
				<line style="fill:none;stroke:#263238;stroke-miterlimit:10;" x1="491.8" y1="408.684" x2="504.544" y2="408.684"/>
				<line style="fill:none;stroke:#263238;stroke-miterlimit:10;" x1="484.826" y1="408.684" x2="490.126" y2="408.684"/>
			</g>
		</g>
	</g>
</g>
<g id="Icons">
	<g>
		<g>
			<path style="fill:none;stroke:#000000;stroke-linecap:round;stroke-linejoin:round;stroke-miterlimit:10;" d="M186.25,147.164
				H148.68c-5.364,0-9.712-4.348-9.712-9.712V57.757c0-5.364,4.348-9.712,9.712-9.712h37.569c5.364,0,9.712,4.348,9.712,9.712
				v79.695C195.962,142.816,191.614,147.164,186.25,147.164z"/>
			<path style="fill:none;stroke:#000000;stroke-linecap:round;stroke-linejoin:round;stroke-miterlimit:10;" d="M195.962,64.565
				v-6.808c0-5.364-4.348-9.712-9.712-9.712H148.68c-5.364,0-9.712,4.348-9.712,9.712v6.808H195.962z"/>
			<path style="fill:none;stroke:#000000;stroke-linecap:round;stroke-linejoin:round;stroke-miterlimit:10;" d="M138.969,136.426
				v1.026c0,5.364,4.348,9.712,9.712,9.712h37.569c5.364,0,9.712-4.348,9.712-9.712v-1.026H138.969z"/>
		</g>
		<g>
			
				<rect x="217.333" y="82.737" style="fill:none;stroke:#000000;stroke-linecap:round;stroke-linejoin:round;stroke-miterlimit:10;" width="69.08" height="61.276"/>
			
				<rect x="234.104" y="82.737" style="fill:none;stroke:#000000;stroke-linecap:round;stroke-linejoin:round;stroke-miterlimit:10;" width="52.309" height="61.276"/>
		</g>
		<g>
			<path d="M187.36,85.921c-0.092,3.856,0.717,7.625,2.672,11.086c0.799,1.415,1.815,2.711,2.777,4.028
				c0.557,0.763,0.821,1.539,0.513,2.462c-0.454,1.36-2.137,1.968-3.327,1.162c-0.4-0.271-0.755-0.634-1.066-1.009
				c-3.64-4.392-5.745-9.42-6.14-15.124c-0.542-7.823,2.047-14.528,7.331-20.248c0.53-0.574,1.106-1.081,1.958-1.115
				c0.977-0.039,1.715,0.355,2.175,1.202c0.467,0.86,0.335,1.712-0.226,2.479c-0.33,0.452-0.745,0.841-1.116,1.263
				c-3.33,3.788-5.175,8.194-5.507,13.23C187.393,85.495,187.38,85.652,187.36,85.921z"/>
			<path d="M200.159,74.817c-0.009,0.717-0.338,1.279-0.824,1.772c-1.96,1.983-3.366,4.305-3.903,7.045
				c-0.829,4.23-0.026,8.136,2.663,11.584c0.313,0.402,0.648,0.79,0.933,1.211c0.687,1.016,0.494,2.327-0.43,3.086
				c-0.904,0.743-2.212,0.695-3.065-0.168c-1.899-1.923-3.225-4.206-4.074-6.758c-1.646-4.948-1.269-9.766,1.048-14.428
				c0.947-1.905,2.207-3.591,3.763-5.046c0.73-0.683,1.735-0.831,2.593-0.409C199.736,73.134,200.16,73.849,200.159,74.817z"/>
			<path d="M198.204,86.345c0.165-3.145,1.361-5.807,3.747-7.906c0.943-0.829,2.307-0.831,3.153,0.003
				c0.906,0.892,0.922,2.227,0.104,3.237c-0.648,0.8-1.396,1.58-1.804,2.499c-1.062,2.396-0.581,4.634,1.092,6.621
				c0.595,0.707,1.062,1.424,0.855,2.426c-0.348,1.683-2.346,2.408-3.656,1.295c-1.275-1.083-2.15-2.442-2.739-3.998
				C198.446,89.177,198.17,87.791,198.204,86.345z"/>
			<path d="M211.805,86.667c-0.058,1.609-1.291,2.782-2.869,2.728c-1.489-0.051-2.735-1.368-2.68-2.836
				c0.06-1.617,1.329-2.788,2.945-2.718C210.679,83.904,211.858,85.185,211.805,86.667z"/>
		</g>
	</g>
	<g>
		<g>
			<path style="fill:none;stroke:#000000;stroke-linecap:round;stroke-linejoin:round;stroke-miterlimit:10;" d="M705.993,262.802
				h-37.569c-5.364,0-9.712-4.348-9.712-9.712v-79.695c0-5.364,4.348-9.712,9.712-9.712h37.569c5.364,0,9.712,4.348,9.712,9.712
				v79.695C715.705,258.454,711.357,262.802,705.993,262.802z"/>
			<path style="fill:none;stroke:#000000;stroke-linecap:round;stroke-linejoin:round;stroke-miterlimit:10;" d="M715.705,180.204
				v-6.808c0-5.364-4.348-9.712-9.712-9.712h-37.569c-5.364,0-9.712,4.348-9.712,9.712v6.808H715.705z"/>
			<path style="fill:none;stroke:#000000;stroke-linecap:round;stroke-linejoin:round;stroke-miterlimit:10;" d="M658.711,252.065
				v1.026c0,5.364,4.348,9.712,9.712,9.712h37.569c5.364,0,9.712-4.348,9.712-9.712v-1.026H658.711z"/>
		</g>
		<g>
			
				<rect x="655.997" y="314.399" style="fill:none;stroke:#000000;stroke-linecap:round;stroke-linejoin:round;stroke-miterlimit:10;" width="67.731" height="53.898"/>
			
				<rect x="672.441" y="314.399" style="fill:none;stroke:#000000;stroke-linecap:round;stroke-linejoin:round;stroke-miterlimit:10;" width="51.287" height="53.898"/>
		</g>
		<g>
			<path d="M689.299,279.994c-3.857-0.092-7.625,0.717-11.086,2.672c-1.415,0.799-2.711,1.815-4.028,2.777
				c-0.763,0.557-1.539,0.821-2.462,0.513c-1.361-0.454-1.968-2.137-1.162-3.327c0.271-0.4,0.634-0.755,1.009-1.066
				c4.392-3.64,9.42-5.746,15.124-6.141c7.823-0.542,14.528,2.047,20.248,7.331c0.574,0.53,1.081,1.106,1.115,1.958
				c0.039,0.977-0.355,1.715-1.202,2.175c-0.86,0.467-1.712,0.335-2.479-0.226c-0.452-0.33-0.841-0.745-1.263-1.116
				c-3.788-3.33-8.194-5.175-13.23-5.508C689.725,280.027,689.567,280.014,689.299,279.994z"/>
			<path d="M700.403,292.793c-0.717-0.009-1.279-0.338-1.772-0.824c-1.983-1.96-4.305-3.367-7.044-3.903
				c-4.23-0.828-8.137-0.026-11.584,2.663c-0.402,0.314-0.79,0.648-1.211,0.933c-1.016,0.687-2.327,0.494-3.086-0.43
				c-0.743-0.905-0.695-2.212,0.168-3.065c1.922-1.899,4.206-3.225,6.758-4.074c4.948-1.646,9.766-1.269,14.428,1.048
				c1.905,0.947,3.591,2.207,5.046,3.763c0.683,0.73,0.831,1.735,0.409,2.593C702.086,292.37,701.371,292.794,700.403,292.793z"/>
			<path d="M688.875,290.837c3.145,0.165,5.807,1.361,7.906,3.747c0.83,0.943,0.831,2.307-0.003,3.153
				c-0.892,0.905-2.227,0.922-3.237,0.103c-0.8-0.648-1.58-1.396-2.5-1.804c-2.396-1.062-4.634-0.581-6.621,1.092
				c-0.707,0.595-1.424,1.062-2.426,0.855c-1.683-0.348-2.408-2.346-1.295-3.656c1.083-1.275,2.443-2.151,3.998-2.74
				C686.043,291.08,687.428,290.803,688.875,290.837z"/>
			<path d="M688.553,304.438c-1.609-0.058-2.782-1.291-2.728-2.869c0.051-1.49,1.369-2.735,2.836-2.68
				c1.617,0.06,2.788,1.329,2.718,2.945C691.315,303.313,690.035,304.492,688.553,304.438z"/>
		</g>
	</g>
</g>
<g id="Plant">
	<g>
		<path style="fill:#263238;" d="M90.059,305.337c0,0-4.639,12.757-14.496,14.496c-9.857,1.74-27.253-17.395-16.236-27.252
			C70.345,282.723,85.421,298.379,90.059,305.337z"/>
		<path style="fill:#263238;" d="M105.135,242.714c0,0-14.496,35.37-8.698,52.765c5.799,17.395,41.749,30.152,52.186,7.538
			c10.437-22.614-12.756-54.505-21.454-61.463C118.472,234.596,108.034,236.916,105.135,242.714z"/>
		<path style="fill:#263238;" d="M189.792,257.79c0,0-24.933,22.614-27.832,45.227c-2.899,22.614,13.916,30.732,31.311,27.832
			c17.395-2.899,26.093-46.967,20.874-67.262C208.927,243.294,189.792,257.79,189.792,257.79z"/>
		<path style="fill:#263238;" d="M194.431,383.036c0,0-27.832,1.16-28.992,14.496c-1.16,13.336,12.176,16.236,25.513,4.639
			C204.288,390.573,206.027,383.615,194.431,383.036z"/>
		<path style="fill:#263238;" d="M125.43,410.868c0,0-2.899,13.916-13.336,19.135c-10.437,5.219-28.992-5.798-19.135-22.614
			C102.816,390.573,120.211,403.91,125.43,410.868z"/>
		<path style="fill:#263238;" d="M101.076,367.38c0,0-5.219-11.597-25.513-4.059c-20.294,7.538-28.412,19.134-15.656,23.193
			C72.664,390.573,101.076,367.38,101.076,367.38z"/>
		<path style="fill:#263238;" d="M159.06,228.218c0,0,3.479,8.118,10.437,6.378c6.958-1.74,8.698-12.176,19.715-9.277
			c11.017,2.899,20.294,15.656,20.294,9.857c0-5.798-13.916-20.874-29.572-20.874C164.279,214.302,159.64,220.68,159.06,228.218z"/>
		<path style="fill:none;stroke:#263238;stroke-linecap:round;stroke-linejoin:round;stroke-miterlimit:10;" d="M130.376,315.8
			c0,0,12.13,35.523,14.729,65.848c2.599,30.325,0,78.845,0,78.845"/>
		<path style="fill:none;stroke:#263238;stroke-linecap:round;stroke-linejoin:round;stroke-miterlimit:10;" d="M172.831,327.93
			c0,0-13.863,40.722-17.328,66.715c-3.466,25.993-4.332,65.848-4.332,65.848"/>
		<path style="fill:none;stroke:#263238;stroke-linecap:round;stroke-linejoin:round;stroke-miterlimit:10;" d="M165.9,400.71
			c0,0-6.065,1.733-9.531,60.65"/>
		<path style="fill:none;stroke:#263238;stroke-linecap:round;stroke-linejoin:round;stroke-miterlimit:10;" d="M125.43,410.868
			c0,0,5.813-4.96,9.279,6.304c3.466,11.263,1.733,42.455,1.733,42.455"/>
		<path style="fill:none;stroke:#263238;stroke-linecap:round;stroke-linejoin:round;stroke-miterlimit:10;" d="M140.421,405.286
			c4.533,25.399,0.352,53.474,0.352,53.474"/>
		<path style="fill:none;stroke:#263238;stroke-linecap:round;stroke-linejoin:round;stroke-miterlimit:10;" d="M101.076,367.38
			c0,0,24.967-4.793,35.365,22.933c1.02,2.72,1.882,5.566,2.606,8.485"/>
		<path style="fill:#263238;" d="M205.277,340.521c0,0,5.219-11.597,25.513-4.059c20.294,7.538,28.412,19.135,15.656,23.194
			C233.689,363.714,205.277,340.521,205.277,340.521z"/>
		<path style="fill:none;stroke:#263238;stroke-linecap:round;stroke-linejoin:round;stroke-miterlimit:10;" d="M183.081,345.599
			c-5.018,3.435-9.84,8.978-13.169,17.855c-10.397,27.726-9.211,96.173-9.211,96.173"/>
		<path style="fill:none;stroke:#263238;stroke-linecap:round;stroke-linejoin:round;stroke-miterlimit:10;" d="M205.277,340.521
			c0,0-8.277-1.589-17.284,2.355"/>
		<path style="fill:none;stroke:#263238;stroke-linecap:round;stroke-linejoin:round;stroke-miterlimit:10;" d="M117.403,323.025
			c5.416,6.36,10.668,14.959,14.705,26.565c13.863,39.856,19.061,90.975,16.462,110.036"/>
		<path style="fill:none;stroke:#263238;stroke-linecap:round;stroke-linejoin:round;stroke-miterlimit:10;" d="M90.059,305.337
			c0,0,12.089,1.886,24.327,14.383"/>
		<path style="fill:none;stroke:#263238;stroke-linecap:round;stroke-linejoin:round;stroke-miterlimit:10;" d="M152.611,360.324
			c-0.844,50.3-1.441,100.169-1.441,100.169"/>
		<path style="fill:none;stroke:#263238;stroke-linecap:round;stroke-linejoin:round;stroke-miterlimit:10;" d="M159.06,228.218
			c0,0-2.692-2.527-4.424,42.528c-0.673,17.507-1.347,50.059-1.918,83.32"/>
	</g>
</g>
<g id="Character">
	<g>
		<polygon style="fill:#FFFFFF;stroke:#263238;stroke-linecap:round;stroke-linejoin:round;stroke-miterlimit:10;" points="
			283.013,461.36 287.418,292.616 229.68,290.166 224.934,461.36 		"/>
		<polygon style="fill:#263238;stroke:#263238;stroke-linecap:round;stroke-linejoin:round;stroke-miterlimit:10;" points="
			271.56,461.36 278.967,278.96 264.604,461.36 		"/>
		<path style="fill:#FFFFFF;stroke:#263238;stroke-linecap:round;stroke-linejoin:round;stroke-miterlimit:10;" d="M233.179,292.966
			c0,0,2.799,15.047,23.445,19.946c20.646,4.899,31.844-17.496,31.844-17.496l-4.199-23.095l-48.64-3.149L233.179,292.966z"/>
		<g>
			<path style="fill:#92E3A9;stroke:#263238;stroke-linecap:round;stroke-linejoin:round;stroke-miterlimit:10;" d="M171.966,461.36
				h58.449l9.244-155.911l-3.198-40.62c0,0-65.888,18.871-69.087,22.069c-3.199,3.198-14.393,102.351-14.393,102.351l27.507,5.118
				L171.966,461.36z"/>
			<polygon style="fill:#263238;stroke:#263238;stroke-linecap:round;stroke-linejoin:round;stroke-miterlimit:10;" points="
				221.645,393.899 178.088,417.93 179.59,404.037 			"/>
			<polyline style="fill:none;stroke:#263238;stroke-linecap:round;stroke-linejoin:round;stroke-miterlimit:10;" points="
				189.216,440.028 224.196,441.374 223.524,448.773 189.216,446.755 			"/>
		</g>
		<g>
			<path style="fill:#92E3A9;stroke:#263238;stroke-linecap:round;stroke-linejoin:round;stroke-miterlimit:10;" d="
				M321.551,394.667c0,0,12.427,17.605,19.158,19.676c6.731,2.071,19.963-9.743,20.158-13.82
				c0.194-4.077-12.391-19.318-12.391-19.318L321.551,394.667z"/>
			<path style="fill:#92E3A9;stroke:#263238;stroke-linecap:round;stroke-linejoin:round;stroke-miterlimit:10;" d="M306.37,461.36
				l0.994-91.41l45.771-0.654c0,0-24.076-73.181-26.525-76.33c-2.45-3.149-45.491-26.595-45.491-26.595s-2.45-2.1-3.499,11.198
				l-8.849,183.791H306.37z"/>
			<path style="fill:#FFFFFF;stroke:#263238;stroke-linecap:round;stroke-linejoin:round;stroke-miterlimit:10;" d="
				M287.068,264.971c0,0,2.449,24.495,3.149,34.643c0.7,10.148,3.149,12.247,0,12.247c-3.149,0-10.848-9.798-10.848-9.798
				l-3.499,4.899l0.7-36.742C276.57,270.22,279.02,260.422,287.068,264.971z"/>
			<polyline style="fill:none;stroke:#263238;stroke-linecap:round;stroke-linejoin:round;stroke-miterlimit:10;" points="
				278.013,442.719 302.903,442.046 302.23,449.446 278.685,448.773 			"/>
		</g>
		<path style="fill:#FFFFFF;stroke:#263238;stroke-linecap:round;stroke-linejoin:round;stroke-miterlimit:10;" d="M238.699,257.791
			c0,0-4.798,0-9.275,11.195c-4.478,11.195-9.915,40.301-8.636,41.26c1.279,0.96,8.316-6.397,12.154-9.915
			c3.838-3.518,6.717,5.118,6.717,5.118l2.559-39.341C242.218,266.107,243.177,256.832,238.699,257.791z"/>
		<g>
			<path style="fill:#FFFFFF;stroke:#263238;stroke-linecap:round;stroke-linejoin:round;stroke-miterlimit:10;" d="M238.38,222.288
				c0,0-3.838-9.915-7.676-7.357c-3.838,2.559-3.518,19.511-0.32,21.43c3.199,1.919,8.956,1.279,8.956,1.279L238.38,222.288z"/>
			<path style="fill:#FFFFFF;stroke:#263238;stroke-linecap:round;stroke-linejoin:round;stroke-miterlimit:10;" d="
				M295.632,225.167c0,0,6.397-4.798,6.077,0.959c-0.32,5.757-8.316,10.235-8.316,10.235L295.632,225.167z"/>
			<path style="fill:#FFFFFF;stroke:#263238;stroke-linecap:round;stroke-linejoin:round;stroke-miterlimit:10;" d="
				M239.339,237.641c0,0-3.838,31.025-1.279,35.823c2.559,4.798,11.195,12.794,33.264,12.154
				c22.069-0.64,17.911-33.264,18.231-34.224c0.32-0.959,3.198-11.514,6.077-20.47c2.879-8.956,5.118-24.948,5.118-24.948
				s6.717,3.838,7.037-0.32c0.32-4.158-13.114-21.75-23.349-26.547c-10.235-4.798-32.944-5.757-42.54,5.118
				c-9.595,10.875-7.996,26.547-7.357,28.786c0.64,2.239,0.64,2.239,0.64,2.239l3.199,7.037L239.339,237.641z"/>
			<path style="fill:#263238;stroke:#263238;stroke-linecap:round;stroke-linejoin:round;stroke-miterlimit:10;" d="
				M307.786,205.656c0.32-4.158-13.114-21.75-23.349-26.547c-10.235-4.798-32.944-5.757-42.54,5.117
				c-9.595,10.875-7.996,26.547-7.356,28.786c0.64,2.239,0.64,2.239,0.64,2.239l3.199,7.037l0.96,15.353
				c0,0-3.838,31.025-1.279,35.823c2.559,4.798,11.195,12.794,33.264,12.154c22.069-0.64,17.911-33.264,18.231-34.224
				c0,0-11.514-8.636-20.15-8.956c-8.636-0.32-22.069,6.077-22.069,6.077s-5.118-27.187-4.478-31.345c0,0,9.595-7.357,9.276-11.834
				c-0.32-4.478-10.613-9.254-4.798-15.033c4.171-4.145,5.249-10.771,20.47-0.96c17.424,11.232,23.029,22.389,23.669,18.231
				c0.64-4.158-0.64-7.676-0.64-7.676l9.915,6.077l3.964,1.52C306.234,207.77,307.644,207.507,307.786,205.656z"/>
			<path style="fill:#FFFFFF;stroke:#263238;stroke-linecap:round;stroke-linejoin:round;stroke-miterlimit:10;" d="M285.077,218.13
				c0,0-4.478,7.037-4.798,11.195c-0.32,4.158-0.64,19.191-2.879,19.511c-2.239,0.32-8.316-7.996-8.316-9.915
				s3.198-0.959,3.198-0.959"/>
			<path style="fill:none;stroke:#263238;stroke-width:2;stroke-linecap:round;stroke-linejoin:round;stroke-miterlimit:10;" d="
				M287.636,218.13c0,0,6.077-2.559,7.996,3.518"/>
			<path style="fill:none;stroke:#263238;stroke-width:2;stroke-linecap:round;stroke-linejoin:round;stroke-miterlimit:10;" d="
				M269.085,214.932c0,0-7.996-5.117-15.353,1.599"/>
			<path style="fill:#263238;" d="M266.054,228.682c0,1.768-1.112,3.202-2.483,3.202c-1.371,0-2.483-1.434-2.483-3.202
				c0-1.768,1.112-3.202,2.483-3.202C264.943,225.48,266.054,226.913,266.054,228.682z"/>
			<path style="fill:#263238;" d="M289.479,232.204c0,1.768-1.111,3.202-2.483,3.202c-1.371,0-2.483-1.434-2.483-3.202
				s1.112-3.202,2.483-3.202C288.367,229.002,289.479,230.435,289.479,232.204z"/>
			<path style="fill:#FFFFFF;stroke:#263238;stroke-linecap:round;stroke-linejoin:round;stroke-miterlimit:10;" d="
				M255.331,250.435c0,0,4.798,5.437,15.672,7.037c0,0-8.956,4.478-14.073,4.158C251.813,261.31,255.331,250.435,255.331,250.435z"
				/>
		</g>
		<polygon style="fill:#263238;stroke:#263238;stroke-linecap:round;stroke-linejoin:round;stroke-miterlimit:10;" points="
			274.251,358.066 297.039,310.916 324.654,316.353 302.059,358.066 		"/>
		<g>
			<path style="fill:#FFFFFF;stroke:#263238;stroke-linecap:round;stroke-linejoin:round;stroke-miterlimit:10;" d="M239.019,364.94
				c0,0,15.992-7.996,16.952-8.316c0.96-0.32,8.636-14.393,10.875-15.353c2.239-0.96,16.822-3.538,16.822-3.538l-3.789,8.096
				c0,0-5.037,0.879-5.677,2.159c-0.64,1.279-0.96,6.077-0.96,6.077s27.507,0.96,28.466,1.279c0.96,0.32,7.676-0.32,5.437,2.559
				c-2.239,2.879-3.838,3.518-4.798,3.518s-7.676,4.478-7.676,4.478s-10.875,8.316-14.393,9.915
				c-3.518,1.599-15.992-4.478-18.871-4.798c-2.879-0.32-20.79,10.555-20.79,10.555L239.019,364.94z"/>
			<path style="fill:none;stroke:#263238;stroke-linecap:round;stroke-linejoin:round;stroke-miterlimit:10;" d="M302.349,361.422
				c0,0-12.154,0.32-14.713,0.32c-2.559,0-11.195,0.32-11.195,0.32"/>
			
				<line style="fill:none;stroke:#263238;stroke-linecap:round;stroke-linejoin:round;stroke-miterlimit:10;" x1="280.919" y1="369.738" x2="294.672" y2="365.899"/>
		</g>
		<path style="fill:#92E3A9;stroke:#263238;stroke-linecap:round;stroke-linejoin:round;stroke-miterlimit:10;" d="M192.861,333.43
			l-4.057,38.546l53.414-8.956l2.239,25.588c0,0-77.403,23.029-83.16,23.669c-5.757,0.64-10.235,2.559-11.834-5.118
			c-1.599-7.676,12.154-120.262,15.033-120.262s23.669-7.037,23.669-7.037"/>
		
			<line style="fill:#92E3A9;stroke:#263238;stroke-linecap:round;stroke-linejoin:round;stroke-miterlimit:10;" x1="194.561" y1="317.283" x2="193.766" y2="324.832"/>
		
			<line style="fill:none;stroke:#263238;stroke-linecap:round;stroke-linejoin:round;stroke-miterlimit:10;" x1="188.803" y1="371.977" x2="165.293" y2="375.199"/>
		
			<line style="fill:none;stroke:#263238;stroke-linecap:round;stroke-linejoin:round;stroke-miterlimit:10;" x1="168.092" y1="371" x2="181.739" y2="372.399"/>
		<g>
			<path style="fill:#FFFFFF;stroke:#263238;stroke-linecap:round;stroke-linejoin:round;stroke-miterlimit:10;" d="
				M363.196,389.651c0,0-2.136-4.66-2.524-6.213c-0.388-1.553-3.106-8.543-3.106-8.543l-0.582,14.173L363.196,389.651z"/>
			<g>
				
					<rect x="299.315" y="357.702" transform="matrix(0.9974 0.0724 -0.0724 0.9974 28.2495 -22.8162)" style="fill:#B5B5B5;stroke:#263238;stroke-linecap:round;stroke-linejoin:round;stroke-miterlimit:10;" width="59.488" height="41.642"/>
				
					<rect x="313.459" y="358.215" transform="matrix(0.9974 0.0724 -0.0724 0.9974 28.3057 -23.3263)" style="fill:#D6D6D6;stroke:#263238;stroke-linecap:round;stroke-linejoin:round;stroke-miterlimit:10;" width="45.326" height="41.641"/>
			</g>
			<path style="fill:#FFFFFF;stroke:#263238;stroke-linecap:round;stroke-linejoin:round;stroke-miterlimit:10;" d="
				M363.196,389.651c0,0-15.726-5.824-17.667-4.66c-1.941,1.165,2.524,4.66,4.077,5.436c1.553,0.777,10.29,6.213,11.455,6.018
				c1.165-0.194,2.718-1.941,2.912-3.883C364.166,390.621,363.196,389.651,363.196,389.651z"/>
			<path style="fill:#FFFFFF;stroke:#263238;stroke-linecap:round;stroke-linejoin:round;stroke-miterlimit:10;" d="M361.06,396.446
				c0,0,1.359,2.524-0.194,4.077c-1.553,1.553-4.465,1.359-7.572-0.388c-3.106-1.747-13.59-6.989-7.96-7.766
				c5.63-0.776,13.008,3.106,13.008,3.106L361.06,396.446z"/>
			<path style="fill:#FFFFFF;stroke:#263238;stroke-linecap:round;stroke-linejoin:round;stroke-miterlimit:10;" d="
				M357.219,401.441c0,0-1.207,1.799-3.731,2.188c-2.524,0.388-5.63-0.582-8.154-3.301c-2.524-2.718-4.077-4.077-2.136-4.271
				c1.941-0.194,5.63,1.747,5.63,1.747L357.219,401.441z"/>
			<path style="fill:#FFFFFF;stroke:#263238;stroke-linecap:round;stroke-linejoin:round;stroke-miterlimit:10;" d="
				M348.829,403.047c0,0-3.689,0.971-5.242,0.582c-1.553-0.388-5.242-5.824-3.106-5.436S348.829,403.047,348.829,403.047z"/>
		</g>
		<g>
			<path style="fill:#263238;" d="M328.098,340.732c-2.307,1.231-4.261,2.965-5.652,5.272c-0.569,0.943-0.995,1.975-1.451,2.982
				c-0.264,0.583-0.635,0.998-1.282,1.124c-0.954,0.186-1.874-0.605-1.795-1.576c0.027-0.327,0.123-0.657,0.24-0.966
				c1.379-3.613,3.644-6.531,6.879-8.666c4.436-2.928,9.257-3.635,14.394-2.423c0.515,0.122,1.006,0.292,1.311,0.784
				c0.349,0.563,0.362,1.13,0.016,1.685c-0.352,0.562-0.899,0.768-1.538,0.693c-0.377-0.044-0.745-0.159-1.118-0.238
				c-3.345-0.702-6.561-0.323-9.644,1.16C328.361,340.609,328.264,340.654,328.098,340.732z"/>
			<path style="fill:#263238;" d="M338.919,344.584c-0.426,0.234-0.868,0.227-1.32,0.104c-1.824-0.496-3.663-0.552-5.459,0.045
				c-2.773,0.921-4.811,2.697-5.949,5.433c-0.133,0.319-0.25,0.646-0.404,0.954c-0.37,0.744-1.209,1.068-1.965,0.775
				c-0.74-0.286-1.148-1.074-0.923-1.865c0.502-1.762,1.407-3.306,2.63-4.658c2.371-2.621,5.341-4.005,8.865-4.191
				c1.44-0.076,2.855,0.105,4.232,0.539c0.647,0.203,1.069,0.747,1.106,1.394C339.771,343.773,339.49,344.261,338.919,344.584z"/>
			<path style="fill:#263238;" d="M331.463,347.272c1.911-0.951,3.881-1.132,5.915-0.424c0.804,0.28,1.26,1.085,1.05,1.862
				c-0.225,0.832-1.007,1.286-1.876,1.14c-0.688-0.116-1.398-0.297-2.076-0.231c-1.768,0.172-2.928,1.202-3.543,2.852
				c-0.219,0.587-0.486,1.102-1.147,1.314c-1.109,0.356-2.203-0.582-1.983-1.726c0.214-1.114,0.725-2.083,1.446-2.95
				C329.873,348.36,330.598,347.735,331.463,347.272z"/>
			<path style="fill:#263238;" d="M335.807,355.407c-0.969,0.502-2.072,0.165-2.566-0.784c-0.467-0.896-0.104-2.07,0.78-2.527
				c0.974-0.503,2.088-0.145,2.586,0.832C337.062,353.822,336.7,354.944,335.807,355.407z"/>
		</g>
	</g>
</g>
<g id="Line">
	
		<line style="fill:none;stroke:#263238;stroke-linecap:round;stroke-linejoin:round;stroke-miterlimit:10;" x1="60.392" y1="461.36" x2="724.187" y2="461.36"/>
</g>
</svg>
